<svg width="72" height="35" viewBox="0 0 72 35" fill="none" xmlns="http://www.w3.org/2000/svg">
<g clip-path="url(#clip0_532_4074)">
<mask id="mask0_532_4074" style="mask-type:luminance" maskUnits="userSpaceOnUse" x="0" y="-1" width="22" height="30">
<path d="M0.0766602 -0.0670166H21.0767V28.0526H0.0766602V-0.0670166Z" fill="white"/>
</mask>
<g mask="url(#mask0_532_4074)">
<path d="M20.8986 11.8022L20.419 7.58298C20.333 6.84446 19.7033 6.282 18.9549 6.282H16.5705V5.07919C16.5705 2.25445 14.2658 -0.0421143 11.4299 -0.0421143C8.59239 -0.0421143 6.28771 2.25445 6.28771 5.07919V6.282H3.90489C3.15646 6.282 2.52521 6.84446 2.44083 7.58298L0.286145 26.4104C0.181457 27.3125 0.890832 28.0978 1.80333 28.0978H2.60489C5.91427 13.9523 16.519 11.9907 20.8986 11.8022ZM15.9143 7.81824C16.2752 7.81824 16.5705 8.11271 16.5705 8.47262C16.5705 8.83253 16.2752 9.127 15.9143 9.127C15.5533 9.127 15.258 8.83253 15.258 8.47262C15.258 8.11271 15.5533 7.81824 15.9143 7.81824ZM7.60177 5.08542C7.60177 2.98673 9.31583 1.27288 11.4299 1.27288C13.544 1.27288 15.258 2.98673 15.258 5.08542V6.28824H7.60177V5.08542ZM6.94552 7.81824C7.30646 7.81824 7.60177 8.11271 7.60177 8.47262C7.60177 8.83253 7.30646 9.127 6.94552 9.127C6.58458 9.127 6.28771 8.83253 6.28771 8.47262C6.28771 8.11271 6.58458 7.81824 6.94552 7.81824Z" fill="#EF233C"/>
</g>
<path d="M17.487 20.8094C18.0745 20.4028 18.4338 19.7328 18.4338 19.0146C18.4338 17.7821 17.3541 16.8613 15.9026 16.8613H12.4338V25.2374H15.9979C17.462 25.2374 18.651 24.1592 18.651 22.8193C18.651 21.9219 18.2182 21.2052 17.487 20.8094ZM16.6698 19.2903C16.6698 19.8169 16.2979 20.1878 15.7338 20.1878H14.2104V18.4038H15.7338C16.2979 18.4038 16.6698 18.7637 16.6698 19.2903ZM15.8307 23.5734H14.2104V21.6944H15.8307C16.4307 21.6944 16.826 22.0901 16.826 22.6277C16.826 23.1792 16.4307 23.5734 15.8307 23.5734Z" fill="#003E29"/>
<path d="M26.3067 21.9827C26.3067 20.1162 24.938 18.5846 22.9474 18.5846C21.0271 18.5846 19.5864 20.0554 19.5864 21.9936C19.5864 23.9334 21.038 25.4166 22.9474 25.4166C24.4583 25.4166 25.6942 24.5192 26.163 23.1076H24.3271C24.063 23.5735 23.5583 23.8601 22.9474 23.8601C22.0942 23.8601 21.5192 23.3709 21.363 22.4844H26.2708C26.2942 22.3177 26.3067 22.1494 26.3067 21.9827ZM22.9474 20.0803C23.738 20.0803 24.3021 20.5103 24.5552 21.3003H21.4099C21.6146 20.5337 22.1661 20.0803 22.9474 20.0803Z" fill="#003E29"/>
<path d="M27.5552 25.225H29.3067V16.4423H27.5552V25.225Z" fill="#003E29"/>
<path d="M36.2669 18.7638L36.0873 19.373C35.5232 18.8837 34.7904 18.5846 33.9513 18.5846C32.006 18.5846 30.5544 20.0445 30.5544 21.9936C30.5544 23.9443 32.006 25.4166 33.9513 25.4166C34.7779 25.4166 35.4982 25.13 36.0513 24.6392L36.206 25.225H37.5748V18.7638H36.2669ZM34.0951 23.7651C33.0748 23.7651 32.331 23.0001 32.331 21.9936C32.331 20.9778 33.0748 20.2237 34.0951 20.2237C35.1154 20.2237 35.8591 20.9778 35.8591 21.9936C35.8591 23.011 35.1154 23.7651 34.0951 23.7651Z" fill="#003E29"/>
<path d="M42.9499 18.6204C42.0749 18.6204 41.2952 18.9912 40.803 19.5645L40.4671 18.7637H39.2671V25.2249H41.0187V21.8393C41.0187 20.797 41.5702 20.1519 42.4702 20.1519C43.2265 20.1519 43.5983 20.6178 43.5983 21.5993V25.2249H45.3499V21.3127C45.3499 19.672 44.4265 18.6204 42.9499 18.6204Z" fill="#003E29"/>
<path d="M47.1029 17.9022H48.8419V16.2865H47.1029V17.9022ZM45.5779 27.559H46.4185C47.8466 27.559 48.8544 26.5525 48.8544 25.1409V18.7638H47.1029V25.01C47.1029 25.6317 46.7669 25.9542 46.1419 25.9542H45.5779V27.559Z" fill="#003E29"/>
<path d="M55.8148 18.7638L55.6351 19.373C55.071 18.8837 54.3382 18.5846 53.4992 18.5846C51.5539 18.5846 50.1023 20.0445 50.1023 21.9936C50.1023 23.9443 51.5539 25.4166 53.4992 25.4166C54.3257 25.4166 55.046 25.13 55.5992 24.6392L55.7539 25.225H57.1226V18.7638H55.8148ZM53.6429 23.7651C52.6226 23.7651 51.8789 23.0001 51.8789 21.9936C51.8789 20.9778 52.6226 20.2237 53.6429 20.2237C54.6632 20.2237 55.407 20.9778 55.407 21.9936C55.407 23.011 54.6632 23.7651 53.6429 23.7651Z" fill="#003E29"/>
<path d="M58.6824 25.2249H60.5433V23.3584H58.6824V25.2249Z" fill="#003E29"/>
<path d="M62.103 17.9022H63.8421V16.2865H62.103V17.9022ZM62.103 25.225H63.8546V18.7638H62.103V25.225Z" fill="#003E29"/>
<path d="M70.2867 16.4423V19.1221C69.782 18.7747 69.182 18.5846 68.5101 18.5846C66.5429 18.5846 65.1023 20.0445 65.1023 22.0061C65.1023 23.9567 66.5429 25.4291 68.5101 25.4291C69.3023 25.4291 69.9992 25.1533 70.5382 24.6984L70.7429 25.2374H72.0382V16.4423H70.2867ZM68.6539 23.7776C67.6351 23.7776 66.8898 23.011 66.8898 22.0061C66.8898 20.9886 67.6351 20.2346 68.6539 20.2346C69.6742 20.2346 70.4179 20.9886 70.4179 22.0061C70.4179 23.011 69.6742 23.7776 68.6539 23.7776Z" fill="#003E29"/>
</g>
<defs>
<clipPath id="clip0_532_4074">
<rect width="72" height="35" fill="white"/>
</clipPath>
</defs>
</svg>
